<svg xmlns="http://www.w3.org/2000/svg" xmlns:xlink="http://www.w3.org/1999/xlink" viewBox="0,0,256,256" width="50px" height="50px" fill-rule="nonzero"><g transform="translate(25.6,25.6) scale(0.8,0.8)"><g fill="#0494ef" fill-rule="nonzero" stroke="none" stroke-width="1" stroke-linecap="butt" stroke-linejoin="miter" stroke-miterlimit="10" stroke-dasharray="" stroke-dashoffset="0" font-family="none" font-weight="none" font-size="none" text-anchor="none" style="mix-blend-mode: normal"><path d="M0,288c-17.67311,0 -32,-14.32689 -32,-32v-256c0,-17.67311 14.32689,-32 32,-32h256c17.67311,0 32,14.32689 32,32v256c0,17.67311 -14.32689,32 -32,32z" id="shape"></path></g><g fill="#ffffff" fill-rule="nonzero" stroke="none" stroke-width="1" stroke-linecap="butt" stroke-linejoin="miter" stroke-miterlimit="10" stroke-dasharray="" stroke-dashoffset="0" font-family="none" font-weight="none" font-size="none" text-anchor="none" style="mix-blend-mode: normal"><g transform="scale(5.12,5.12)"><path d="M47.50781,12.44141c-0.04687,-0.06641 -0.09766,-0.13281 -0.15625,-0.19141c-0.05078,-0.05469 -0.10156,-0.10937 -0.16016,-0.15625c-0.13672,-0.12109 -0.28125,-0.23047 -0.44922,-0.3125l-11.96484,-6.0625l-0.71094,-0.35937h-0.00391c-0.22266,-0.11328 -0.46094,-0.19922 -0.70312,-0.25781c-0.26562,-0.06641 -0.53906,-0.10156 -0.80859,-0.10156c-1.19922,0 -2.32422,0.62891 -2.94141,1.63672l-1.76562,2.91016l-5.26562,8.66406l-2.83984,-5.55469c-0.21875,-0.35937 -0.52344,-0.64062 -0.88672,-0.82422l-12.01172,-6.07813c0,-0.00391 -0.00391,-0.00391 -0.00781,-0.00781l-0.37891,-0.1875c-0.5,-0.25391 -1.01562,-0.38281 -1.53125,-0.38281c-1.66406,0 -2.92187,1.34766 -2.92187,3.13672v27.05469c0,1.47656 0.94922,3.02734 2.26172,3.69141l10.89844,5.51563c0.55469,0.28125 1.12109,0.42578 1.6875,0.42578c1.82813,0 3.15234,-1.4375 3.15234,-3.42187v-8.73047l22,11.15234v-0.01172l0.76953,0.39063c0.67188,0.33984 1.34375,0.51172 2,0.51172c1.87109,0 3.23047,-1.39453 3.23047,-3.3125v-27.74219c0,-0.52344 -0.1875,-1 -0.49219,-1.39453zM18,41.57813c0,0.89063 -0.47656,1.42188 -1.15234,1.42188c-0.23828,0 -0.50391,-0.06641 -0.78516,-0.20703l-10.89844,-5.51953c-0.64062,-0.32422 -1.16406,-1.18359 -1.16406,-1.90625v-27.05469c0,-0.71484 0.37891,-1.13672 0.92188,-1.13672c0.19141,0 0.40625,0.05078 0.62891,0.16406l0.38281,0.19531h0.00391l12.01172,6.08203c0.01953,0.01172 0.03516,0.03125 0.05078,0.04688zM30.58594,8.88281l0.73438,-1.20703c0.26172,-0.42969 0.74219,-0.67578 1.23047,-0.67578c0.11328,0 0.23047,0.01563 0.34375,0.04688c0.08594,0.01953 0.17578,0.05078 0.26953,0.09766l12.66797,6.41406c0.00391,0 0.00391,0.00391 0.00391,0.00391l0.01172,0.00391c0.00781,0.00391 0.00781,0.01563 0.01563,0.01953c0.0625,0.05078 0.08984,0.13672 0.04688,0.20703l-12.61719,20.76563l-1.28906,2.11719l-8.35937,-16.37109zM20,30.60547v-13.04297l8.98047,17.59375l-8.07812,-4.08984zM46,41.57813c0,0.83594 -0.49609,1.3125 -1.22656,1.3125c-0.32812,0 -0.70312,-0.09375 -1.09766,-0.29297l-1.80859,-0.91797l-8.07812,-4.08984l12.21094,-20.09375z"></path></g></g></g></svg>